<svg width="427.3" height="100.4" xmlns="http://www.w3.org/2000/svg">

 <g>
  <title>background</title>
  <rect fill="none" id="canvas_background" height="402" width="582" y="-1" x="-1"/>
 </g>
 <g>
  <title>Layer 1</title>
  <text stroke="null" transform="matrix(3.737353642163024,0,0,2.826860189437866,-230.29228115594015,-6.138980116695166) " xml:space="preserve" text-anchor="start" font-family="Helvetica, Arial, sans-serif" font-size="24" id="svg_11" y="31.798754" x="63.747074" stroke-opacity="null" stroke-width="0" fill="#ffffff">畅</text>
  <text stroke="null" transform="matrix(3.737353642163024,0,0,2.826860189437866,-230.29228115594015,-6.138980116695166) " xml:space="preserve" text-anchor="start" font-family="Helvetica, Arial, sans-serif" font-size="24" id="svg_12" y="31.445005" x="90.771544" stroke-opacity="null" stroke-width="0" fill="#80bd01">居</text>
  <path stroke="null" id="svg_14" d="m414.022164,38.657118c0.039652,-0.337612 0.062609,-0.678687 0.062609,-1.023224c0,-5.976597 -5.839302,-10.820895 -13.043474,-10.820895c-5.590955,0 -10.347127,2.924239 -12.202431,7.027522c-1.229217,-1.118448 -2.98226,-1.833492 -4.950259,-1.833492c-3.710607,0 -6.717911,2.494866 -6.717911,5.573194c0,0.363582 0.048,0.718507 0.129391,1.061313c-4.950259,0.676955 -8.738084,4.217552 -8.738084,8.514746c0,4.78197 4.672694,8.656716 10.434779,8.656716l33.130424,0c5.764172,0 10.434779,-3.874746 10.434779,-8.656716c0.002087,-4.243522 -3.683477,-7.758149 -8.539823,-8.499164z" fill-opacity="null" stroke-opacity="null" stroke-width="null" fill="#80bd01"/>
  <text style="cursor: move;" stroke="null" xml:space="preserve" text-anchor="start" font-family="Helvetica, Arial, sans-serif" font-size="24" id="svg_15" y="88.030007" x="244.590291" stroke-opacity="null" stroke-width="0" fill="#ffffff">@sunzhongmou</text>
 </g>
</svg>